<svg width="18" height="21" viewBox="0 0 18 21" fill="none" xmlns="http://www.w3.org/2000/svg">
<path d="M17.5342 17.1652C17.5342 13.6429 16.6636 9.57143 13.1547 9.57143C12.0699 10.6295 10.5967 11.2857 8.96273 11.2857C7.3288 11.2857 5.85558 10.6295 4.77076 9.57143C1.26183 9.57143 0.391296 13.6429 0.391296 17.1652C0.391296 19.1205 1.67701 20.7143 3.24398 20.7143H14.6815C16.2484 20.7143 17.5342 19.1205 17.5342 17.1652ZM14.1056 5.28571C14.1056 2.44643 11.802 0.142856 8.96273 0.142856C6.12344 0.142856 3.81987 2.44643 3.81987 5.28571C3.81987 8.125 6.12344 10.4286 8.96273 10.4286C11.802 10.4286 14.1056 8.125 14.1056 5.28571Z" fill="#E24040"/>
</svg>
