<svg width="25" height="20" viewBox="0 0 25 20" fill="none" xmlns="http://www.w3.org/2000/svg">
<path d="M24.3923 6.9375C23.9905 7.37946 23.5351 7.76786 23.053 8.10268C20.8164 9.61607 18.5664 11.1429 16.3833 12.7232C15.2583 13.5536 13.8655 14.5714 12.4057 14.5714H12.3923H12.3789C10.9191 14.5714 9.5262 13.5536 8.4012 12.7232C6.21817 11.1295 3.96817 9.61607 1.74495 8.10268C1.24942 7.76786 0.794059 7.37946 0.392273 6.9375V17.5714C0.392273 18.75 1.35656 19.7143 2.53513 19.7143H22.2494C23.428 19.7143 24.3923 18.75 24.3923 17.5714V6.9375ZM24.3923 3C24.3923 1.82143 23.4146 0.857142 22.2494 0.857142H2.53513C1.10209 0.857142 0.392273 1.98214 0.392273 3.29464C0.392273 4.51339 1.74495 6.02678 2.69584 6.66964C4.77174 8.11607 6.87442 9.5625 8.95031 11.0223C9.82084 11.625 11.2941 12.8571 12.3789 12.8571H12.3923H12.4057C13.4905 12.8571 14.9637 11.625 15.8342 11.0223C17.9101 9.5625 20.0128 8.11607 22.1021 6.66964C23.2807 5.85268 24.3923 4.5 24.3923 3Z" fill="#E24040"/>
</svg>
