<svg width="25" height="20" viewBox="0 0 25 20" fill="none" xmlns="http://www.w3.org/2000/svg">
<path d="M19.2494 7.71428C19.2494 3.92411 15.0307 0.857142 9.82084 0.857142C4.61102 0.857142 0.392273 3.92411 0.392273 7.71428C0.392273 9.88393 1.78513 11.8259 3.95477 13.0848C3.49942 14.1964 2.91013 14.7188 2.38781 15.308C2.24049 15.4821 2.06638 15.6429 2.11995 15.8973C2.16013 16.125 2.34763 16.2857 2.54852 16.2857C2.56192 16.2857 2.57531 16.2857 2.5887 16.2857C2.99049 16.2321 3.37888 16.1652 3.74049 16.0714C5.09317 15.7232 6.35209 15.1473 7.4637 14.3571C8.2137 14.4911 9.00388 14.5714 9.82084 14.5714C15.0307 14.5714 19.2494 11.5045 19.2494 7.71428ZM24.3923 11.1429C24.3923 8.90625 22.9191 6.92411 20.6557 5.67857C20.8566 6.33482 20.9637 7.01786 20.9637 7.71428C20.9637 10.1116 19.7316 12.3214 17.495 13.9554C15.4191 15.4554 12.7003 16.2857 9.82084 16.2857C9.43245 16.2857 9.03067 16.2589 8.64227 16.2321C10.3164 17.3304 12.5396 18 14.9637 18C15.7807 18 16.5708 17.9196 17.3208 17.7857C18.4325 18.5759 19.6914 19.1518 21.0441 19.5C21.4057 19.5938 21.7941 19.6607 22.1958 19.7143C22.4101 19.7411 22.611 19.567 22.6646 19.3259C22.7182 19.0714 22.5441 18.9107 22.3967 18.7366C21.8744 18.1473 21.2851 17.625 20.8298 16.5134C22.9994 15.2545 24.3923 13.3259 24.3923 11.1429Z" fill="#E24040"/>
</svg>
