<svg width="20" height="19" viewBox="0 0 20 19" fill="none" xmlns="http://www.w3.org/2000/svg">
<path d="M19.2494 15.0357C19.2494 14.942 19.2494 14.8482 19.2092 14.7545C19.1155 14.4732 18.4592 14.1786 18.1914 14.0446C17.428 13.6161 16.6512 13.2009 15.9012 12.7589C15.553 12.5446 15.1244 12.1429 14.7092 12.1429C13.8923 12.1429 12.7003 14.567 11.9771 14.567C11.6155 14.567 11.1467 14.2321 10.8253 14.0446C8.38781 12.692 6.70031 11.0045 5.34763 8.56696C5.16013 8.24553 4.82531 7.77678 4.82531 7.41518C4.82531 6.69196 7.24942 5.5 7.24942 4.68303C7.24942 4.26786 6.84763 3.83928 6.63334 3.49107C6.19138 2.74107 5.7762 1.96428 5.34763 1.20089C5.2137 0.933035 4.91906 0.276785 4.63781 0.183035C4.54406 0.142856 4.45031 0.142856 4.35656 0.142856C3.87442 0.142856 2.93692 0.357142 2.49495 0.558035C1.8387 0.839285 1.41013 1.58928 1.07531 2.19196C0.646737 2.98214 0.392273 3.78571 0.392273 4.68303C0.392273 5.92857 0.901202 7.05357 1.31638 8.19196C1.61102 9.00893 1.97263 9.79911 2.42799 10.5357C3.83424 12.8125 6.57977 15.558 8.85656 16.9643C9.59317 17.4196 10.3833 17.7812 11.2003 18.0759C12.3387 18.4911 13.4637 19 14.7092 19C15.6066 19 16.4101 18.7455 17.2003 18.317C17.803 17.9821 18.553 17.5536 18.8342 16.8973C19.0351 16.4554 19.2494 15.5179 19.2494 15.0357Z" fill="#E24040"/>
</svg>
