<svg width="581" height="564" viewBox="0 0 581 564" fill="none" xmlns="http://www.w3.org/2000/svg">
<mask id="path-1-inside-1_1310_19" fill="white">
<path fill-rule="evenodd" clip-rule="evenodd" d="M995.942 564C998.62 543.044 1000 521.683 1000 500C1000 223.858 776.142 0 500 0C223.858 0 0 223.858 0 500C0 521.683 1.38026 543.044 4.05771 564H995.942Z"/>
</mask>
<path d="M995.942 564V694H1110.39L1124.89 580.476L995.942 564ZM4.05771 564L-124.894 580.476L-110.389 694H4.05771V564ZM870 500C870 516.161 868.972 532.019 866.991 547.524L1124.89 580.476C1128.27 554.07 1130 527.206 1130 500H870ZM500 130C704.345 130 870 295.655 870 500H1130C1130 152.061 847.939 -130 500 -130V130ZM130 500C130 295.655 295.655 130 500 130V-130C152.061 -130 -130 152.061 -130 500H130ZM133.009 547.524C131.028 532.019 130 516.161 130 500H-130C-130 527.206 -128.268 554.07 -124.894 580.476L133.009 547.524ZM4.05771 694H995.942V434H4.05771V694Z" fill="#E24040" mask="url(#path-1-inside-1_1310_19)"/>
</svg>
