<svg width="70" height="18" viewBox="0 0 70 18" fill="none" xmlns="http://www.w3.org/2000/svg">
<path d="M0.736 0.199999H2.512V15.464H11.92V17H0.736V0.199999ZM21.8847 17.144C20.2207 17.144 18.7087 16.776 17.3487 16.04C16.0047 15.288 14.9487 14.264 14.1807 12.968C13.4287 11.672 13.0527 10.216 13.0527 8.6C13.0527 6.984 13.4287 5.528 14.1807 4.232C14.9487 2.936 16.0047 1.92 17.3487 1.184C18.7087 0.431999 20.2207 0.0559993 21.8847 0.0559993C23.5487 0.0559993 25.0447 0.423999 26.3727 1.16C27.7167 1.896 28.7727 2.92 29.5407 4.232C30.3087 5.528 30.6927 6.984 30.6927 8.6C30.6927 10.216 30.3087 11.68 29.5407 12.992C28.7727 14.288 27.7167 15.304 26.3727 16.04C25.0447 16.776 23.5487 17.144 21.8847 17.144ZM21.8847 15.56C23.2127 15.56 24.4127 15.264 25.4847 14.672C26.5567 14.064 27.3967 13.232 28.0047 12.176C28.6127 11.104 28.9167 9.912 28.9167 8.6C28.9167 7.288 28.6127 6.104 28.0047 5.048C27.3967 3.976 26.5567 3.144 25.4847 2.552C24.4127 1.944 23.2127 1.64 21.8847 1.64C20.5567 1.64 19.3487 1.944 18.2607 2.552C17.1887 3.144 16.3407 3.976 15.7167 5.048C15.1087 6.104 14.8047 7.288 14.8047 8.6C14.8047 9.912 15.1087 11.104 15.7167 12.176C16.3407 13.232 17.1887 14.064 18.2607 14.672C19.3487 15.264 20.5567 15.56 21.8847 15.56ZM46.5055 8.6H48.2095V15.008C47.4255 15.696 46.4975 16.224 45.4255 16.592C44.3535 16.96 43.2255 17.144 42.0415 17.144C40.3615 17.144 38.8495 16.776 37.5055 16.04C36.1615 15.304 35.1055 14.288 34.3375 12.992C33.5695 11.68 33.1855 10.216 33.1855 8.6C33.1855 6.984 33.5695 5.528 34.3375 4.232C35.1055 2.92 36.1615 1.896 37.5055 1.16C38.8495 0.423999 40.3695 0.0559993 42.0655 0.0559993C43.3455 0.0559993 44.5215 0.263999 45.5935 0.68C46.6655 1.08 47.5695 1.68 48.3055 2.48L47.2015 3.608C45.8735 2.296 44.1855 1.64 42.1375 1.64C40.7775 1.64 39.5455 1.944 38.4415 2.552C37.3535 3.144 36.4975 3.976 35.8735 5.048C35.2495 6.104 34.9375 7.288 34.9375 8.6C34.9375 9.912 35.2495 11.096 35.8735 12.152C36.4975 13.208 37.3535 14.04 38.4415 14.648C39.5295 15.256 40.7535 15.56 42.1135 15.56C43.8415 15.56 45.3055 15.128 46.5055 14.264V8.6ZM60.58 17.144C58.916 17.144 57.404 16.776 56.044 16.04C54.7 15.288 53.644 14.264 52.876 12.968C52.124 11.672 51.748 10.216 51.748 8.6C51.748 6.984 52.124 5.528 52.876 4.232C53.644 2.936 54.7 1.92 56.044 1.184C57.404 0.431999 58.916 0.0559993 60.58 0.0559993C62.244 0.0559993 63.74 0.423999 65.068 1.16C66.412 1.896 67.468 2.92 68.236 4.232C69.004 5.528 69.388 6.984 69.388 8.6C69.388 10.216 69.004 11.68 68.236 12.992C67.468 14.288 66.412 15.304 65.068 16.04C63.74 16.776 62.244 17.144 60.58 17.144ZM60.58 15.56C61.908 15.56 63.108 15.264 64.18 14.672C65.252 14.064 66.092 13.232 66.7 12.176C67.308 11.104 67.612 9.912 67.612 8.6C67.612 7.288 67.308 6.104 66.7 5.048C66.092 3.976 65.252 3.144 64.18 2.552C63.108 1.944 61.908 1.64 60.58 1.64C59.252 1.64 58.044 1.944 56.956 2.552C55.884 3.144 55.036 3.976 54.412 5.048C53.804 6.104 53.5 7.288 53.5 8.6C53.5 9.912 53.804 11.104 54.412 12.176C55.036 13.232 55.884 14.064 56.956 14.672C58.044 15.264 59.252 15.56 60.58 15.56Z" fill="#E24040"/>
</svg>
